<svg xmlns="http://www.w3.org/2000/svg" viewBox="0 0 100 100">
  <rect width="100" height="100" rx="20" fill="#166534"/>
  <g transform="translate(18, 18) scale(2.67)" stroke="white" stroke-width="2.2" stroke-linecap="round" stroke-linejoin="round" fill="none">
    <path d="M7 19H4.815a1.83 1.83 0 0 1-1.57-.881 1.785 1.785 0 0 1-.004-1.784L7.196 9.5"/>
    <path d="M11 19h8.203a1.83 1.83 0 0 0 1.556-.89 1.784 1.784 0 0 0 0-1.775l-1.226-2.12"/>
    <path d="M14 16l3-3-3-3"/>
    <path d="M7 19l-3-3 3-3"/>
    <path d="M9.5 4 11 2l1.5 2"/>
    <path d="M11 2v7l2.5-2.5"/>
    <path d="M16.5 8.5 18 10l-1.5 1.5"/>
    <path d="M18 10H9"/>
  </g>
</svg>
